<svg width="21" height="21" viewBox="0 0 21 21" fill="none" xmlns="http://www.w3.org/2000/svg">
<path fill-rule="evenodd" clip-rule="evenodd" d="M11.0277 0.689481C5.50768 0.670784 1.01254 5.13558 0.993838 10.6556C0.975141 16.1755 5.43994 20.6707 10.9599 20.6894C16.4799 20.7081 20.975 16.2433 20.9937 10.7233C21.0124 5.20333 16.5476 0.708178 11.0277 0.689481ZM6.04254 16.9527C6.47558 16.0542 9.09855 15.183 10.9785 15.1894C12.8585 15.1958 15.4855 16.0847 15.9025 16.9861C14.5388 18.0615 12.8267 18.6957 10.9667 18.6894C9.10669 18.6831 7.39887 18.0373 6.04254 16.9527ZM17.3374 15.5409C15.9133 13.7961 12.4453 13.1944 10.9853 13.1894C9.52532 13.1845 6.05334 13.7627 4.61746 15.4979C3.602 14.1544 2.98766 12.4823 2.99383 10.6623C3.00876 6.25235 6.6109 2.67453 11.0209 2.68947C15.4309 2.70441 19.0087 6.30655 18.9937 10.7165C18.9876 12.5365 18.3619 14.2044 17.3374 15.5409ZM11.0141 4.68946C9.07411 4.68289 7.50884 6.23759 7.50227 8.17758C7.4957 10.1176 9.0504 11.6828 10.9904 11.6894C12.9304 11.696 14.4957 10.1413 14.5022 8.20129C14.5088 6.2613 12.9541 4.69603 11.0141 4.68946ZM10.9972 9.68943C10.1672 9.68662 9.49945 9.01435 9.50226 8.18436C9.50507 7.35436 10.1773 6.68664 11.0073 6.68945C11.8373 6.69226 12.5051 7.36452 12.5022 8.19452C12.4994 9.02451 11.8272 9.69224 10.9972 9.68943Z" fill="white"/>
</svg>
